<?xml version="1.0" encoding="UTF-8" standalone="no"?>
<svg
   xmlns:dc="http://purl.org/dc/elements/1.1/"
   xmlns:cc="http://creativecommons.org/ns#"
   xmlns:rdf="http://www.w3.org/1999/02/22-rdf-syntax-ns#"
   xmlns:svg="http://www.w3.org/2000/svg"
   xmlns="http://www.w3.org/2000/svg"
   xmlns:sodipodi="http://sodipodi.sourceforge.net/DTD/sodipodi-0.dtd"
   xmlns:inkscape="http://www.inkscape.org/namespaces/inkscape"
   viewBox="0 0 48 48"
   version="1.1"
   id="svg45"
   sodipodi:docname="cpupower-gui_alt.svg"
   inkscape:version="0.92.1 r">
  <metadata
     id="metadata49">
    <rdf:RDF>
      <cc:Work
         rdf:about="">
        <dc:format>image/svg+xml</dc:format>
        <dc:type
           rdf:resource="http://purl.org/dc/dcmitype/StillImage" />
        <dc:title></dc:title>
      </cc:Work>
    </rdf:RDF>
  </metadata>
  <sodipodi:namedview
     pagecolor="#ffffff"
     bordercolor="#666666"
     borderopacity="1"
     objecttolerance="10"
     gridtolerance="10"
     guidetolerance="10"
     inkscape:pageopacity="0"
     inkscape:pageshadow="2"
     inkscape:window-width="1920"
     inkscape:window-height="1024"
     id="namedview47"
     showgrid="false"
     inkscape:zoom="5.6568543"
     inkscape:cx="87.389984"
     inkscape:cy="15.643365"
     inkscape:window-x="0"
     inkscape:window-y="56"
     inkscape:window-maximized="0"
     inkscape:current-layer="svg45" />
  <defs
     id="defs7">
    <linearGradient
       id="linearGradient3764"
       x1="1"
       x2="47"
       gradientUnits="userSpaceOnUse"
       gradientTransform="matrix(0,-1,1,0,-1.5e-6,47.999998)">
      <stop
         style="stop-color:#01a7dd;stop-opacity:1"
         id="stop2" />
      <stop
         offset="1"
         style="stop-color:#01b3f1;stop-opacity:1"
         id="stop4" />
    </linearGradient>
  </defs>
  <g
     id="g15">
    <path
       d="m 36.31 5 c 5.859 4.062 9.688 10.831 9.688 18.5 c 0 12.426 -10.07 22.5 -22.5 22.5 c -7.669 0 -14.438 -3.828 -18.5 -9.688 c 1.037 1.822 2.306 3.499 3.781 4.969 c 4.085 3.712 9.514 5.969 15.469 5.969 c 12.703 0 23 -10.298 23 -23 c 0 -5.954 -2.256 -11.384 -5.969 -15.469 c -1.469 -1.475 -3.147 -2.744 -4.969 -3.781 z m 4.969 3.781 c 3.854 4.113 6.219 9.637 6.219 15.719 c 0 12.703 -10.297 23 -23 23 c -6.081 0 -11.606 -2.364 -15.719 -6.219 c 4.16 4.144 9.883 6.719 16.219 6.719 c 12.703 0 23 -10.298 23 -23 c 0 -6.335 -2.575 -12.06 -6.719 -16.219 z"
       style="opacity:0.05"
       id="path9" />
    <path
       d="m 41.28 8.781 c 3.712 4.085 5.969 9.514 5.969 15.469 c 0 12.703 -10.297 23 -23 23 c -5.954 0 -11.384 -2.256 -15.469 -5.969 c 4.113 3.854 9.637 6.219 15.719 6.219 c 12.703 0 23 -10.298 23 -23 c 0 -6.081 -2.364 -11.606 -6.219 -15.719 z"
       style="opacity:0.1"
       id="path11" />
    <path
       d="m 31.25 2.375 c 8.615 3.154 14.75 11.417 14.75 21.13 c 0 12.426 -10.07 22.5 -22.5 22.5 c -9.708 0 -17.971 -6.135 -21.12 -14.75 a 23 23 0 0 0 44.875 -7 a 23 23 0 0 0 -16 -21.875 z"
       style="opacity:0.2"
       id="path13" />
  </g>
  <g
     id="g19">
    <path
       d="m 24 1 c 12.703 0 23 10.297 23 23 c 0 12.703 -10.297 23 -23 23 -12.703 0 -23 -10.297 -23 -23 0 -12.703 10.297 -23 23 -23 z"
       style="fill:url(#linearGradient3764);fill-opacity:1"
       id="path17" />
  </g>
  <g
     id="g43">
    <path
       d="m 40.03 7.531 c 3.712 4.084 5.969 9.514 5.969 15.469 0 12.703 -10.297 23 -23 23 c -5.954 0 -11.384 -2.256 -15.469 -5.969 4.178 4.291 10.01 6.969 16.469 6.969 c 12.703 0 23 -10.298 23 -23 0 -6.462 -2.677 -12.291 -6.969 -16.469 z"
       style="opacity:0.1"
       id="path41" />
  </g>
  <g
     id="g4577"
     transform="translate(0.1020105,-0.0358685)">
    <g
       id="g4592"
       transform="translate(1.9517305,1.9322035)">
      <rect
         style="opacity:1;fill:#000000;fill-opacity:0.28731342;stroke:none;stroke-width:1.75748026;stroke-miterlimit:4;stroke-dasharray:none;stroke-dashoffset:0;stroke-opacity:1"
         id="rect4594"
         width="18.624474"
         height="18.624474"
         x="13.358921"
         y="13.644593"
         ry="2.7325473"
         rx="2.4449108" />
      <path
         d="m 28.841408,31.366015 h -13.82219 c -1.298594,0 -2.351177,-1.052739 -2.351177,-2.351178 V 15.192493 c 0,-1.298594 1.052583,-2.351177 2.351177,-2.351177 h 13.82219 c 1.298595,0 2.351329,1.052583 2.351329,2.351177 v 13.822344 c 0,1.298439 -1.052734,2.351178 -2.351329,2.351178"
         style="fill:#515151;fill-opacity:1;fill-rule:nonzero;stroke:none;stroke-width:0.01529918"
         id="path18"
         inkscape:connector-curvature="0" />
      <path
         d="m 17.915504,10.749766 h -1.294616 v 2.09155 h 1.294616 v -2.09155"
         style="fill:#ffffff;fill-opacity:1;fill-rule:nonzero;stroke:none;stroke-width:0.01529918"
         id="path20"
         inkscape:connector-curvature="0" />
      <path
         d="m 22.577775,10.749766 h -1.29477 v 2.09155 h 1.29477 v -2.09155"
         style="fill:#ffffff;fill-opacity:1;fill-rule:nonzero;stroke:none;stroke-width:0.01529918"
         id="path22"
         inkscape:connector-curvature="0" />
      <path
         d="m 27.239893,10.749766 h -1.294768 v 2.09155 h 1.294768 v -2.09155"
         style="fill:#ffffff;fill-opacity:1;fill-rule:nonzero;stroke:none;stroke-width:0.01529918"
         id="path24"
         inkscape:connector-curvature="0" />
      <path
         d="m 17.915504,31.366015 h -1.294616 v 2.091549 h 1.294616 v -2.091549"
         style="fill:#ffffff;fill-opacity:1;fill-rule:nonzero;stroke:none;stroke-width:0.01529918"
         id="path26"
         inkscape:connector-curvature="0" />
      <path
         d="m 22.577775,31.366015 h -1.29477 v 2.091549 h 1.29477 v -2.091549"
         style="fill:#ffffff;fill-opacity:1;fill-rule:nonzero;stroke:none;stroke-width:0.01529918"
         id="path28"
         inkscape:connector-curvature="0" />
      <path
         d="m 27.239893,31.366015 h -1.294768 v 2.091549 h 1.294768 v -2.091549"
         style="fill:#ffffff;fill-opacity:1;fill-rule:nonzero;stroke:none;stroke-width:0.01529918"
         id="path30"
         inkscape:connector-curvature="0" />
      <path
         d="m 33.316027,18.088778 v -1.294614 h -2.111066 v 1.294614 h 2.111066"
         style="fill:#ffffff;fill-opacity:1;fill-rule:nonzero;stroke:none;stroke-width:0.01537038"
         id="path32"
         inkscape:connector-curvature="0" />
      <path
         d="m 33.284289,22.751049 v -1.29477 h -2.091552 v 1.29477 h 2.091552"
         style="fill:#ffffff;fill-opacity:1;fill-rule:nonzero;stroke:none;stroke-width:0.01529918"
         id="path34"
         inkscape:connector-curvature="0" />
      <path
         d="m 33.284289,27.413168 v -1.294771 h -2.091552 v 1.294771 h 2.091552"
         style="fill:#ffffff;fill-opacity:1;fill-rule:nonzero;stroke:none;stroke-width:0.01529918"
         id="path36"
         inkscape:connector-curvature="0" />
      <path
         d="m 12.668041,18.088778 v -1.294614 h -2.09155 v 1.294614 h 2.09155"
         style="fill:#ffffff;fill-opacity:1;fill-rule:nonzero;stroke:none;stroke-width:0.01529918"
         id="path38"
         inkscape:connector-curvature="0" />
      <path
         d="m 12.668041,22.751049 v -1.29477 h -2.09155 v 1.29477 h 2.09155"
         style="fill:#ffffff;fill-opacity:1;fill-rule:nonzero;stroke:none;stroke-width:0.01529918"
         id="path40"
         inkscape:connector-curvature="0" />
      <path
         d="m 12.668041,27.413168 v -1.294771 h -2.09155 v 1.294771 h 2.09155"
         style="fill:#ffffff;fill-opacity:1;fill-rule:nonzero;stroke:none;stroke-width:0.01529918"
         id="path42"
         inkscape:connector-curvature="0" />
      <path
         d="M 27.926735,30.382904 H 14.855716 c -1.228022,0 -2.195022,0.01709 -2.197297,-1.216134 l -0.0261,-14.145026 c -0.0023,-1.233366 0.995381,-2.233082 2.223403,-2.233082 h 13.071019 c 1.228023,0 2.223546,0.999714 2.223546,2.233082 v 13.128077 c 0,1.233221 -0.995523,2.233083 -2.223546,2.233083"
         style="opacity:0.10499998;fill:#ffffff;fill-opacity:1;fill-rule:nonzero;stroke:none;stroke-width:0.0144992"
         id="path18-3"
         inkscape:connector-curvature="0"
         sodipodi:nodetypes="csssssssc" />
    </g>
  </g>
  <circle
     style="opacity:1;fill:#ffffff;fill-opacity:1;stroke:none;stroke-width:2.22038794;stroke-miterlimit:4;stroke-dasharray:none;stroke-dashoffset:0;stroke-opacity:1"
     id="path4619-7"
     cx="18.14362"
     cy="17.881315"
     r="1.1242055" />
  <g
     id="g4533"
     transform="matrix(0.66765247,-0.02972082,0.02328875,0.85205015,8.0087477,4.4807396)">
    <g
       id="g4537"
       transform="matrix(0.79293982,0,0,0.79293982,44.307228,4.592646)"
       style="fill:#ffffff;fill-opacity:1;stroke:none;stroke-opacity:1">
      <path
         style="fill:#ffffff;fill-opacity:1;fill-rule:evenodd;stroke:none;stroke-width:0.2;stroke-linecap:butt;stroke-linejoin:miter;stroke-miterlimit:4;stroke-dasharray:none;stroke-opacity:1"
         d="M -22.4375,22.8125 H -27.25 l -2.692588,10.048877 z"
         id="path4514"
         inkscape:connector-curvature="0" />
      <path
         style="fill:#ffffff;fill-opacity:1;fill-rule:evenodd;stroke:none;stroke-width:0.2;stroke-linecap:butt;stroke-linejoin:miter;stroke-miterlimit:4;stroke-dasharray:none;stroke-opacity:1"
         d="m -30.991496,25.419519 h 4.8125 l 2.692588,-10.048876 z"
         id="path4514-3"
         inkscape:connector-curvature="0" />
    </g>
  </g>
</svg>
